<svg preserveAspectRatio="none" width="100%" height="100%" overflow="visible" style="display: block;" viewBox="0 0 61.38 43.34" fill="none" xmlns="http://www.w3.org/2000/svg">
<path id="&#226;&#128;&#156;" d="M18.04 0C20.46 0 20.46 0.879989 22 2.63999C22.66 3.3 23.1 3.95999 23.1 4.83999C23.1 5.49999 22.66 6.38 22 7.04C20.46 8.79999 18.48 11.22 16.5 14.3C23.76 15.4 29.26 21.34 29.26 28.6L29.04 31.02C28.16 37.18 23.32 42.02 17.6 43.12C16.5 43.34 15.62 43.34 14.52 43.34C6.38 43.34 0 36.74 0 28.82V28.16C0 17.16 10.78 5.71999 15.62 0.879989C16.28 0.219997 17.16 0 18.04 0ZM50.16 0C52.58 0 52.58 0.879989 54.12 2.63999C54.78 3.3 55.22 3.95999 55.22 4.83999C55.22 5.49999 54.78 6.38 54.12 7.04C52.58 8.79999 50.6 11.22 48.62 14.3C55.88 15.4 61.38 21.34 61.38 28.6L61.16 31.02C60.28 37.18 55.44 42.02 49.72 43.12C48.62 43.34 47.74 43.34 46.64 43.34C38.5 43.34 32.12 36.74 32.12 28.82V28.16C32.12 17.16 42.9 5.71999 47.74 0.879989C48.4 0.219997 49.28 0 50.16 0Z" fill="var(--fill-0, #2E3540)"/>
</svg>
