<svg preserveAspectRatio="none" width="100%" height="100%" overflow="visible" style="display: block;" viewBox="0 0 184.591 34.0429" fill="none" xmlns="http://www.w3.org/2000/svg">
<g id="Frame 24">
<path id="Vector" d="M15.3119 2.84356C16.5789 3.00497 18.3925 10.1852 19.7918 11.0741C21.5774 12.208 26.9068 9.79039 28.6228 10.6949C28.5943 12.6648 23.7403 15.1999 22.7682 16.6622C21.4736 18.6094 27.7031 27.5401 26.9656 28.6829C25.2908 28.5938 18.246 21.9533 16.6964 21.8381L16.1255 22.4817C12.7062 25.3032 10.3839 28.3675 6.62198 31.2136C8.05472 28.5684 10.0672 20.7391 10.384 17.6833C7.61843 15.9174 5.80213 15.3937 2.77877 13.0816C6.70833 12.3698 8.16973 13.0574 12.2634 11.7608C13.0483 8.58391 13.1534 4.83592 15.3119 2.84356Z" fill="var(--fill-0, #B3C6E7)"/>
<path id="Vector_2" d="M53.187 2.84356C54.454 3.00497 56.2676 10.1852 57.667 11.0741C59.4525 12.208 64.7819 9.79039 66.4979 10.6949C66.4695 12.6648 61.6155 15.1999 60.6433 16.6622C59.3487 18.6094 65.5783 27.5401 64.8407 28.6829C63.1659 28.5938 56.1211 21.9533 54.5715 21.8381L54.0006 22.4817C50.5813 25.3032 48.259 28.3675 44.4971 31.2136C45.9298 28.5684 47.9424 20.7391 48.2591 17.6833C45.4936 15.9174 43.6772 15.3937 40.6539 13.0816C44.5835 12.3698 46.0448 13.0574 50.1385 11.7608C50.9234 8.58391 51.0285 4.83592 53.187 2.84356Z" fill="var(--fill-0, #B3C6E7)"/>
<path id="Vector_3" d="M91.0621 2.84356C92.3291 3.00497 94.1427 10.1852 95.5421 11.0741C97.3276 12.208 102.657 9.79039 104.373 10.6949C104.345 12.6648 99.4906 15.1999 98.5185 16.6622C97.2239 18.6094 103.453 27.5401 102.716 28.6829C101.041 28.5938 93.9963 21.9533 92.4466 21.8381L91.8757 22.4817C88.4565 25.3032 86.1341 28.3675 82.3722 31.2136C83.805 28.5684 85.8175 20.7391 86.1342 17.6833C83.3687 15.9174 81.5524 15.3937 78.529 13.0816C82.4586 12.3698 83.92 13.0574 88.0136 11.7608C88.7985 8.58391 88.9037 4.83592 91.0621 2.84356Z" fill="var(--fill-0, #B3C6E7)"/>
<path id="Vector_4" d="M128.937 2.84356C130.204 3.00497 132.018 10.1852 133.417 11.0741C135.203 12.208 140.532 9.79039 142.248 10.6949C142.22 12.6648 137.366 15.1999 136.394 16.6622C135.099 18.6094 141.329 27.5401 140.591 28.6829C138.916 28.5938 131.871 21.9533 130.322 21.8381L129.751 22.4817C126.332 25.3032 124.009 28.3675 120.247 31.2136C121.68 28.5684 123.693 20.7391 124.009 17.6833C121.244 15.9174 119.427 15.3937 116.404 13.0816C120.334 12.3698 121.795 13.0574 125.889 11.7608C126.674 8.58391 126.779 4.83592 128.937 2.84356Z" fill="var(--fill-0, #B3C6E7)"/>
<path id="Vector_5" d="M166.812 2.84356C168.079 3.00497 169.893 10.1852 171.292 11.0741C173.078 12.208 178.407 9.79039 180.123 10.6949C180.095 12.6648 175.241 15.1999 174.269 16.6622C172.974 18.6094 179.204 27.5401 178.466 28.6829C176.791 28.5938 169.747 21.9533 168.197 21.8381L167.626 22.4817C164.207 25.3032 161.884 28.3675 158.122 31.2136C159.555 28.5684 161.568 20.7391 161.884 17.6833C159.119 15.9174 157.303 15.3937 154.279 13.0816C158.209 12.3698 159.67 13.0574 163.764 11.7608C164.549 8.58391 164.654 4.83592 166.812 2.84356Z" fill="var(--fill-0, #B3C6E7)" fill-opacity="0.3"/>
<path id="Vector_6" d="M167.626 22.4817L168.197 21.8381C168.639 21.871 169.527 22.4342 170.611 23.2249L170.611 10.249C169.34 8.11531 167.882 2.97978 166.812 2.84356C164.654 4.83592 164.549 8.58391 163.764 11.7608C159.67 13.0574 158.209 12.3698 154.279 13.0816C157.303 15.3937 159.119 15.9174 161.884 17.6833C161.568 20.7391 159.555 28.5684 158.122 31.2136C161.884 28.3675 164.207 25.3032 167.626 22.4817Z" fill="var(--fill-0, #B3C6E7)"/>
</g>
</svg>
