<svg preserveAspectRatio="none" width="100%" height="100%" overflow="visible" style="display: block;" viewBox="0 0 49.365 51.8856" fill="none" xmlns="http://www.w3.org/2000/svg">
<path id="Vector" d="M29.419 0C31.6043 0.9087 31.3306 14.6293 33.3965 16.903C36.0326 19.8035 46.7409 18.0916 49.365 20.5482C48.3499 24.055 38.4336 26.2096 35.9804 28.3472C32.7134 31.1936 39.4751 50.2043 37.5975 51.8856C34.6479 50.9066 25.3081 35.5897 22.5948 34.6254L21.2595 35.4962C13.7672 38.8649 8.11662 43.2046 0 46.4497C3.85553 42.4236 11.2851 29.416 13.3471 24.1096C9.26891 19.5997 6.27913 17.7746 2.00756 12.1623C9.37901 12.8138 11.6543 14.7581 19.6052 14.4449C22.5632 9.15119 24.5859 2.50415 29.419 0Z" fill="var(--fill-0, #B3C6E7)"/>
</svg>
