<svg preserveAspectRatio="none" width="100%" height="100%" overflow="visible" style="display: block;" viewBox="0 0 41.2598 41.6332" fill="none" xmlns="http://www.w3.org/2000/svg">
<path id="Vector" d="M14.0793 0.494568C15.5289 1.11403 18.8033 5.19699 21.0107 6.17375C22.4178 5.88761 28.4369 1.22578 30.134 0C29.9368 3.08185 29.2487 7.14394 28.8041 10.271C31.0347 10.2722 36.9455 9.08121 37.8463 10.7451C37.2239 12.8177 35.6351 12.9724 34.8812 14.8694C35.6544 17.5863 38.3179 16.9842 40.6065 19.0317C40.5756 23.1054 35.4379 22.0605 33.8954 24.8644C34.1622 26.3914 38.0744 31.0973 38.9983 32.8922C39.787 34.4278 40.5331 35.9698 41.2598 37.5769C36.5319 34.4838 33.8954 32.939 28.5954 31.0257C28.4678 33.3369 28.3364 35.6423 28.2939 37.9574C28.2668 39.4179 28.8544 40.093 28.5799 41.4174C27.6367 41.84 27.4821 41.5636 26.2643 41.2542C23.9912 38.6573 23.5351 34.3195 21.2465 32.4224C17.6436 31.6738 16.3253 36.0708 13.7932 38.3769C12.2971 39.7361 11.5665 40.2028 9.90034 41.284C10.2251 36.8948 11.0485 33.1575 11.9144 28.8545C11.091 28.7586 9.93512 28.6109 9.10783 28.6245C6.95071 28.6596 1.68163 31.6 0 29.7771C0.301533 28.3824 6.13503 22.5354 7.37209 21.24C5.14924 20.5351 2.92642 20.0606 1.21 18.5394L1.22156 17.8658C3.07329 16.7359 6.95069 16.3554 9.23539 15.9889L8.32693 10.5904C7.19038 9.49959 5.75232 8.4718 6.12344 6.8284C8.07954 6.17762 10.9673 8.1551 12.676 9.1102C13.0703 6.0299 13.395 3.53388 14.0793 0.494568Z" fill="var(--fill-0, #B3C6E7)"/>
</svg>
