<svg preserveAspectRatio="none" width="100%" height="100%" overflow="visible" style="display: block;" viewBox="0 0 717.805 396" fill="none" xmlns="http://www.w3.org/2000/svg">
<g id="Group 3">
<g id="DE L&#195;&#156;BSCHE">
<path d="M56.5884 58.4959C64.3773 68.1922 69.146 81.5445 69.146 96.3275C69.146 126.052 49.9123 150.055 26.0688 150.055H3.17912C1.43061 150.055 0 148.624 0 146.717V45.9384C0 44.1898 1.43061 42.7592 3.17912 42.7592H26.0688C37.9905 42.7592 48.6406 48.7996 56.5884 58.4959ZM24.0024 59.1317V133.523C37.8316 130.821 45.1436 115.243 45.1436 96.3275C45.1436 77.5706 37.8316 61.834 24.0024 59.1317Z" fill="var(--fill-0, #B3C6E7)"/>
<path d="M140.502 146.717C140.502 148.624 139.072 150.055 137.323 150.055H83.4371C81.5296 150.055 80.099 148.624 80.099 146.717V45.9384C80.099 44.1898 81.5296 42.7592 83.4371 42.7592H134.144C135.893 42.7592 137.323 44.1898 137.323 45.9384V58.8138C137.323 60.5623 135.893 61.9929 134.144 61.9929H104.26V88.3797H125.243C126.991 88.3797 128.422 89.8103 128.422 91.5588V101.096C128.422 103.004 126.991 104.434 125.243 104.434H104.26V130.821H137.323C139.072 130.821 140.502 132.252 140.502 134V146.717Z" fill="var(--fill-0, #B3C6E7)"/>
<path d="M257.934 146.717C257.934 148.624 256.503 150.055 254.755 150.055H204.048C202.299 150.055 200.869 148.624 200.869 146.717V45.9384C200.869 44.1898 202.299 42.7592 204.048 42.7592H221.692C223.44 42.7592 224.871 44.1898 224.871 45.9384V130.821H254.755C256.503 130.821 257.934 132.252 257.934 134V146.717Z" fill="var(--fill-0, #B3C6E7)"/>
<path d="M305.813 121.284V45.9384C305.813 44.1898 307.244 42.7592 308.992 42.7592H325.047C326.795 42.7592 328.226 44.1898 328.226 45.9384V116.515C328.226 135.59 312.807 151.167 293.732 151.167C274.658 151.167 259.08 135.59 259.08 116.515V45.9384C259.08 44.1898 260.511 42.7592 262.418 42.7592H278.314C280.062 42.7592 281.493 44.1898 281.493 45.9384V120.966C281.493 126.688 284.513 134.477 293.732 134.795H294.209C303.27 134.795 305.813 127.006 305.813 121.284ZM312.171 34.1756C302.634 34.1756 295.004 26.3867 295.004 17.0083C295.004 7.6299 302.634 0 312.171 0C321.55 0 329.18 7.6299 329.18 17.0083C329.18 26.3867 321.55 34.1756 312.171 34.1756ZM275.453 34.1756C265.915 34.1756 258.285 26.3867 258.285 17.0083C258.285 7.6299 265.915 0 275.453 0C284.831 0 292.461 7.6299 292.461 17.0083C292.461 26.3867 284.831 34.1756 275.453 34.1756Z" fill="var(--fill-0, #B3C6E7)"/>
<path d="M406.406 105.07C408.473 109.203 409.744 113.972 409.744 119.058V120.012C409.268 136.861 395.12 150.055 378.271 150.055H342.824C341.075 150.055 339.645 148.624 339.645 146.717V45.9384C339.645 44.1898 341.075 42.7592 342.824 42.7592H374.615C391.623 42.7592 405.453 56.5884 405.453 73.5967C405.453 81.5446 402.432 88.8565 397.346 94.42C401.161 97.2812 404.181 100.937 406.406 105.07ZM363.647 58.8138V88.3797H366.667C374.774 88.3797 381.45 81.7035 381.45 73.5967C381.45 65.331 374.774 58.8138 366.667 58.8138H363.647ZM363.647 134H370.959C379.225 134 385.742 127.324 385.742 119.217C385.742 110.951 379.225 104.434 370.959 104.434H363.647V134Z" fill="var(--fill-0, #B3C6E7)"/>
<path d="M442.889 70.5766C445.751 85.0416 490.735 87.267 490.735 118.74C490.735 134 481.834 151.167 452.427 151.167C434.465 151.167 419.364 137.974 416.026 118.263V117.628C416.026 116.356 416.82 115.084 418.251 114.607L433.511 109.68C433.829 109.521 434.147 109.521 434.465 109.521C435.895 109.521 437.326 110.634 437.644 112.223C440.028 128.278 448.294 134.954 455.447 134.954C461.646 134.954 466.892 130.026 466.892 122.078C466.892 120.171 466.574 117.946 465.779 115.561C460.692 99.1887 418.887 99.0297 418.887 69.146C418.887 54.363 431.127 41.6465 454.016 41.6465C469.117 41.6465 483.582 50.0712 487.397 65.49C487.556 65.8079 487.556 66.1258 487.556 66.2848C487.556 67.5564 486.602 68.8281 485.331 69.3049L471.184 73.9147C470.866 74.0736 470.548 74.0736 470.23 74.0736C468.799 74.0736 467.369 73.1199 467.051 71.6893C464.666 62.1519 458.149 58.019 452.427 58.019C447.181 58.019 442.571 61.5161 442.571 67.7154C442.571 68.6691 442.73 69.6228 442.889 70.5766Z" fill="var(--fill-0, #B3C6E7)"/>
<path d="M535.838 134.795C542.037 134.795 546.488 128.437 549.19 118.899C549.508 117.469 550.78 116.515 552.21 116.515H568.106C569.854 116.515 571.285 117.946 571.285 119.694C571.285 120.012 571.285 120.33 571.126 120.648C565.404 138.769 553.005 151.167 535.838 151.167C511.676 151.167 496.893 126.529 496.893 96.3275C496.893 66.1258 511.676 41.6465 535.838 41.6465C550.621 41.6465 561.907 50.866 568.424 65.0131C568.583 65.49 568.742 65.8079 568.742 66.2848C568.742 67.7154 567.788 68.987 566.516 69.3049L552.528 73.9147C552.21 74.0736 551.892 74.0736 551.733 74.0736C550.303 74.0736 548.872 73.1199 548.554 71.6893C545.852 63.2646 541.56 58.019 535.838 58.019C525.664 58.019 519.783 75.1863 519.783 96.3275C519.783 117.628 525.664 134.795 535.838 134.795Z" fill="var(--fill-0, #B3C6E7)"/>
<path d="M647.842 146.717C647.842 148.624 646.412 150.055 644.663 150.055H627.019C625.27 150.055 623.84 148.624 623.84 146.717V104.434H602.858V146.717C602.858 148.624 601.427 150.055 599.679 150.055H582.034C580.286 150.055 578.855 148.624 578.855 146.717V45.9384C578.855 44.1898 580.286 42.7592 582.034 42.7592H599.679C601.427 42.7592 602.858 44.1898 602.858 45.9384V88.3797H623.84V45.9384C623.84 44.1898 625.27 42.7592 627.019 42.7592H644.663C646.412 42.7592 647.842 44.1898 647.842 45.9384V146.717Z" fill="var(--fill-0, #B3C6E7)"/>
<path d="M717.805 146.717C717.805 148.624 716.375 150.055 714.626 150.055H660.74C658.833 150.055 657.402 148.624 657.402 146.717V45.9384C657.402 44.1898 658.833 42.7592 660.74 42.7592H711.447C713.196 42.7592 714.626 44.1898 714.626 45.9384V58.8138C714.626 60.5623 713.196 61.9929 711.447 61.9929H681.563V88.3797H702.546C704.294 88.3797 705.725 89.8103 705.725 91.5588V101.096C705.725 103.004 704.294 104.434 702.546 104.434H681.563V130.821H714.626C716.375 130.821 717.805 132.252 717.805 134V146.717Z" fill="var(--fill-0, #B3C6E7)"/>
</g>
<g id="SCHUT">
<path d="M49.8133 246.908C55.1065 273.668 138.328 277.785 138.328 336.01C138.328 364.241 121.86 396 67.4574 396C34.2277 396 6.29124 371.592 0.115815 335.128V333.952C0.115815 331.599 1.58615 329.247 4.23276 328.364L32.4633 319.248C33.0514 318.954 33.6396 318.954 34.2277 318.954C36.8743 318.954 39.5209 321.013 40.109 323.953C44.5201 353.654 59.8116 366.005 73.0446 366.005C84.5133 366.005 94.2175 356.889 94.2175 342.185C94.2175 338.657 93.6294 334.54 92.1591 330.129C82.7489 299.84 5.40904 299.546 5.40904 244.261C5.40904 216.913 28.0523 193.387 70.398 193.387C98.3345 193.387 125.095 208.973 132.152 237.497C132.446 238.085 132.446 238.674 132.446 238.968C132.446 241.32 130.682 243.673 128.329 244.555L102.157 253.083C101.569 253.377 100.981 253.377 100.393 253.377C97.7463 253.377 95.0997 251.613 94.5116 248.966C90.1006 231.322 78.0438 223.676 67.4574 223.676C57.7531 223.676 49.2252 230.146 49.2252 241.614C49.2252 243.379 49.5192 245.143 49.8133 246.908Z" fill="var(--fill-0, #B3C6E7)"/>
<path d="M221.767 365.711C233.236 365.711 241.47 353.948 246.469 336.304C247.057 333.658 249.41 331.893 252.056 331.893H281.463C284.698 331.893 287.344 334.54 287.344 337.774C287.344 338.363 287.344 338.951 287.05 339.539C276.464 373.063 253.526 396 221.767 396C177.069 396 149.721 350.419 149.721 294.546C149.721 238.674 177.069 193.387 221.767 193.387C249.115 193.387 269.994 210.443 282.051 236.615C282.345 237.497 282.639 238.085 282.639 238.968C282.639 241.614 280.875 243.967 278.522 244.555L252.644 253.083C252.056 253.377 251.468 253.377 251.174 253.377C248.527 253.377 245.881 251.613 245.293 248.966C240.293 233.38 232.354 223.676 221.767 223.676C202.947 223.676 192.066 255.435 192.066 294.546C192.066 333.952 202.947 365.711 221.767 365.711Z" fill="var(--fill-0, #B3C6E7)"/>
<path d="M428.975 387.766C428.975 391.295 426.328 393.941 423.093 393.941H390.452C387.217 393.941 384.57 391.295 384.57 387.766V309.544H345.754V387.766C345.754 391.295 343.107 393.941 339.872 393.941H307.231C303.996 393.941 301.349 391.295 301.349 387.766V201.327C301.349 198.092 303.996 195.446 307.231 195.446H339.872C343.107 195.446 345.754 198.092 345.754 201.327V279.843H384.57V201.327C384.57 198.092 387.217 195.446 390.452 195.446H423.093C426.328 195.446 428.975 198.092 428.975 201.327V387.766Z" fill="var(--fill-0, #B3C6E7)"/>
<path d="M533.69 340.715V201.327C533.69 198.092 536.337 195.446 539.572 195.446H569.273C572.507 195.446 575.154 198.092 575.154 201.327V331.893C575.154 367.181 546.629 396 511.341 396C476.053 396 447.234 367.181 447.234 331.893V201.327C447.234 198.092 449.881 195.446 453.41 195.446H482.817C486.051 195.446 488.698 198.092 488.698 201.327V340.127C488.698 350.713 494.285 365.123 511.341 365.711H512.223C528.985 365.711 533.69 351.302 533.69 340.715Z" fill="var(--fill-0, #B3C6E7)"/>
<path d="M629.469 231.028H591.534C588.3 231.028 585.653 228.381 585.653 225.147V201.327C585.653 198.092 588.3 195.446 591.534 195.446H711.808C715.043 195.446 717.69 198.092 717.69 201.327V225.147C717.69 228.381 715.043 231.028 711.808 231.028H673.873V387.766C673.873 391.295 671.227 393.941 667.992 393.941H635.351C632.116 393.941 629.469 391.295 629.469 387.766V231.028Z" fill="var(--fill-0, #B3C6E7)"/>
</g>
</g>
</svg>
